#!OML:ASF C:\ViconDB\ViconDB\414\Spring2016\041811\Spring2016.ASF
:FULLY-SPECIFIED
:DEGREES
382
root 11.8249 17.8064 -19.1703 -177.146 -6.39677 -174.647
lowerback -1.97223 -2.28032 3.74663
upperback -0.816209 -3.28877 3.29338
thorax 0.254496 -1.71572 1.21199
lowerneck -14.5081 2.36072 -0.911744
upperneck 28.1502 3.87515 5.30624
head 11.4215 2.96659 2.77828
rclavicle -1.91703e-014 1.90833e-014
rhumerus -85.9258 33.9162 -115.355
rradius 92.0125
rwrist 27.912
rhand -40.6719 -0.596132
rfingers 7.12502
rthumb -13.6155 -30.1309
lclavicle -1.91703e-014 1.90833e-014
lhumerus -86.7206 -42.3774 123.284
lradius 73.4881
lwrist -27.1574
lhand -46.0465 -3.0903
lfingers 7.12502
lthumb -18.7904 26.0221
rfemur 358.388 -228.874 36.8207
rtibia 38.2004
rfoot -66.8932 -53.5132
rtoes -1.66979e-014
lfemur -15.2353 5.5088 -12.5816
ltibia 68.2002
lfoot 7.84744 -10.2491
ltoes 2.70347e-013
383
root 11.8592 17.8154 -19.3516 -177.401 -6.61602 -174.069
lowerback -1.71818 -2.20555 3.69963
upperback -0.661318 -3.17537 3.28938
thorax 0.274151 -1.65588 1.2433
lowerneck -14.581 2.47396 -0.514902
upperneck 28.0547 3.85796 5.58155
head 11.404 3.03626 2.80827
rclavicle -2.90723e-015 -1.51076e-014
rhumerus -86.1698 34.0778 -115.685
rradius 91.9648
rwrist 27.2736
rhand -40.9737 -0.745036
rfingers 7.12502
rthumb -13.9063 -30.2601
lclavicle -2.90723e-015 -1.51076e-014
lhumerus -86.4373 -42.5971 123.185
lradius 73.4556
lwrist -26.9693
lhand -45.8617 -3.61297
lfingers 7.12502
lthumb -18.6126 25.5166
rfemur 357.578 -230.651 37.4273
rtibia 38.3001
rfoot -68.7293 -52.8297
rtoes -5.1684e-014
lfemur -17.526 5.67054 -11.6525
ltibia 70.5089
lfoot 6.28047 -9.35139
ltoes 3.18055e-014
384
root 11.8842 17.8244 -19.536 -177.547 -6.8202 -173.063
lowerback -1.71141 -2.06442 4.252
upperback -0.513186 -3.01243 3.3246
thorax 0.397626 -1.57568 0.972063
lowerneck -14.7091 2.56611 -0.21435
upperneck 27.9517 3.76015 6.14888
head 11.3895 3.09928 2.95334
rclavicle 3.14949e-015 3.53837e-014
rhumerus -85.9382 33.8262 -115.557
rradius 91.8617
rwrist 27.1695
rhand -40.6936 -0.164937
rfingers 7.12502
rthumb -13.6364 -29.6983
lclavicle 3.14949e-015 3.53837e-014
lhumerus -86.1555 -42.9468 123.055
lradius 73.4373
lwrist -27.1866
lhand -45.7831 -3.53995
lfingers 7.12502
lthumb -18.5371 25.5968
rfemur 357.09 -232.832 38.806
rtibia 38.4439
rfoot -71.0662 -52.147
rtoes -2.14687e-014
lfemur -19.9132 5.8154 -10.3156
ltibia 72.4697
lfoot 4.60926 -8.48151
ltoes -1.59028e-013
385
root 11.9152 17.8223 -19.7199 -177.696 -7.06954 -172.269
lowerback -1.63278 -1.92549 4.46818
upperback -0.417974 -2.83614 3.37113
thorax 0.446174 -1.48832 0.903685
lowerneck -14.691 4.49107 -0.54109
upperneck 27.5558 2.96194 7.20519
head 11.2278 1.61268 3.02893
rclavicle 4.46613e-014 -2.79292e-014
rhumerus -86.1475 33.9169 -115.746
rradius 91.7159
rwrist 27.096
rhand -40.8975 -0.659259
rfingers 7.12502
rthumb -13.8329 -30.1793
lclavicle 4.46613e-014 -2.79292e-014
lhumerus -86.1286 -43.2621 123.267
lradius 73.2357
lwrist -27.6121
lhand -46.2242 -3.33816
lfingers 7.12502
lthumb -18.9613 25.7576
rfemur 356.552 -235.046 39.9064
rtibia 38.6406
rfoot -73.3423 -51.5058
rtoes 1.64594e-013
lfemur -22.248 5.87753 -9.20412
ltibia 74.0964
lfoot 2.92978 -7.79207
ltoes 0
386
root 11.9565 17.818 -19.8949 -178.06 -7.28791 -172.171
lowerback -1.10136 -1.8813 3.81493
upperback -0.274899 -2.72065 3.2935
thorax 0.322434 -1.4239 1.20594
lowerneck -14.8453 4.59738 -0.532087
upperneck 27.5798 2.92792 7.77797
head 11.2601 1.66835 3.23896
rclavicle 3.55281e-014 1.9133e-014
rhumerus -86.4974 34.1108 -116.142
rradius 91.5133
rwrist 26.8403
rhand -41.0994 -0.843948
rfingers 7.12502
rthumb -14.0274 -30.3506
lclavicle 3.55281e-014 1.9133e-014
lhumerus -85.9283 -43.3883 123.226
lradius 73.2756
lwrist -27.5585
lhand -46.2562 -3.95736
lfingers 7.12502
lthumb -18.9921 25.1354
rfemur 355.168 -236.533 39.4288
rtibia 38.9092
rfoot -74.4968 -50.9093
rtoes 1.69365e-013
lfemur -24.1959 5.68673 -8.89923
ltibia 75.2506
lfoot 1.27776 -7.05728
ltoes -1.97194e-013
387
root 11.9911 17.8166 -20.0754 -178.252 -7.54312 -171.797
lowerback -0.791336 -1.80834 3.49254
upperback -0.219446 -2.59744 3.28616
thorax 0.219821 -1.36065 1.38948
lowerneck -14.8286 4.62266 -0.422763
upperneck 27.5211 2.84878 8.0506
head 11.2378 1.67512 3.30732
rclavicle 2.46369e-014 -1.01654e-013
rhumerus -86.8046 34.146 -116.492
rradius 91.1664
rwrist 26.6034
rhand -41.5915 -0.400922
rfingers 7.12502
rthumb -14.5016 -29.8741
lclavicle 2.46369e-014 -1.01654e-013
lhumerus -85.8281 -43.4256 123.289
lradius 73.0127
lwrist -30.0065
lhand -47.2813 -1.24759
lfingers 7.12502
lthumb -19.9777 27.7455
rfemur 354.116 -238.11 39.5081
rtibia 39.2158
rfoot -75.864 -50.3486
rtoes 2.36951e-013
lfemur -26.3566 5.32145 -8.35169
ltibia 76.0823
lfoot -0.328909 -6.65192
ltoes 3.11694e-013
388
root 12.0222 17.8101 -20.2532 -178.388 -7.79315 -171.498
lowerback -0.478172 -1.6801 3.2439
upperback -0.189481 -2.39739 3.20387
thorax 0.0813606 -1.25742 1.4554
lowerneck -14.9472 4.61399 -0.478014
upperneck 27.4987 2.6592 8.64741
head 11.2533 1.65388 3.51417
rclavicle 5.22524e-014 -5.94366e-014
rhumerus -87.2131 34.2275 -116.897
rradius 91.0187
rwrist 26.109
rhand -41.5493 -1.25537
rfingers 7.12502
rthumb -14.4609 -30.7315
lclavicle 5.22524e-014 -5.94366e-014
lhumerus -85.7695 -43.519 123.288
lradius 72.9442
lwrist -31.4244
lhand -47.8999 -0.0529647
lfingers 7.12502
lthumb -20.5722 28.877
rfemur 353.098 -239.657 39.5153
rtibia 39.561
rfoot -77.215 -49.8073
rtoes 4.0234e-013
lfemur -28.4351 4.93473 -7.94462
ltibia 76.4919
lfoot -1.90295 -6.32619
ltoes -1.65389e-013
389
root 12.0524 17.7962 -20.435 -178.557 -8.02597 -171.005
lowerback -0.162439 -1.5632 3.14396
upperback -0.185483 -2.22193 3.20586
thorax -0.0881343 -1.17028 1.52421
lowerneck -14.9291 4.61375 -0.427529
upperneck 27.473 2.53129 8.98047
head 11.2447 1.63593 3.60939
rclavicle 2.46182e-014 -6.04305e-014
rhumerus -87.5198 34.1638 -117.124
rradius 90.6922
rwrist 26.0999
rhand -41.8435 -1.33293
rfingers 7.12502
rthumb -14.7444 -30.7885
lclavicle 2.46182e-014 -6.04305e-014
lhumerus -85.6287 -43.6077 123.093
lradius 73.2534
lwrist -31.2995
lhand -47.6664 -0.786379
lfingers 7.12502
lthumb -20.3478 28.1676
rfemur 352.133 -241.826 39.8402
rtibia 39.8962
rfoot -79.4186 -49.5592
rtoes 3.76896e-013
lfemur -30.4706 4.58496 -7.2907
ltibia 76.6153
lfoot -3.47938 -6.21242
ltoes 4.73903e-013
390
root 12.0805 17.7858 -20.6177 -178.717 -8.27094 -170.74
lowerback 0.212432 -1.45721 2.80447
upperback -0.220026 -2.04844 3.11774
thorax -0.326242 -1.08009 1.6353
lowerneck -14.8484 4.69639 -0.128132
upperneck 27.4515 2.4493 9.28804
head 11.2312 1.65654 3.65662
rclavicle 1.84249e-014 -4.37326e-015
rhumerus -87.9787 34.1213 -117.574
rradius 90.4202
rwrist 25.6136
rhand -41.9633 -1.15149
rfingers 7.12502
rthumb -14.8598 -30.5986
lclavicle 1.84249e-014 -4.37326e-015
lhumerus -85.819 -43.6385 123.17
lradius 73.6238
lwrist -31.2882
lhand -47.6573 -0.811722
lfingers 7.12502
lthumb -20.339 28.1432
rfemur 350.981 -243.72 39.6446
rtibia 40.2105
rfoot -81.102 -49.0588
rtoes -1.90833e-014
lfemur -32.3565 4.07226 -6.92826
ltibia 76.338
lfoot -4.87322 -6.01206
ltoes 6.36111e-015
391
root 12.1171 17.7694 -20.8036 -178.96 -8.5948 -170.638
lowerback 0.640203 -1.40779 2.1468
upperback -0.170352 -1.954 3.03137
thorax -0.497645 -1.02571 1.92523
lowerneck -14.8593 4.67505 -0.0678703
upperneck 27.3513 2.28875 9.65463
head 11.2034 1.62998 3.75641
rclavicle 1.27098e-014 -3.97569e-016
rhumerus -88.4279 34.3206 -118.094
rradius 90.1562
rwrist 25.2975
rhand -42.3319 -1.67811
rfingers 7.12502
rthumb -15.2148 -31.0987
lclavicle 1.27098e-014 -3.97569e-016
lhumerus -85.8641 -43.661 123.042
lradius 73.8868
lwrist -32.1869
lhand -47.7173 -0.304179
lfingers 7.12502
lthumb -20.3968 28.6446
rfemur 349.45 -245.702 38.9482
rtibia 40.5583
rfoot -82.7588 -48.6087
rtoes 6.99722e-014
lfemur -34.022 3.48884 -6.7261
ltibia 75.7334
lfoot -5.93305 -6.16127
ltoes 2.41722e-013
392
root 12.1424 17.7482 -20.9927 -179.045 -8.89777 -169.788
lowerback 0.793224 -1.29666 2.43856
upperback -0.252993 -1.80262 3.13852
thorax -0.676083 -0.955997 1.87655
lowerneck -14.7877 4.62911 -0.169007
upperneck 27.3547 2.09582 10.083
head 11.1953 1.5709 3.90318
rclavicle 3.90985e-014 -4.29375e-014
rhumerus -89.1191 34.4123 -118.763
rradius 89.9843
rwrist 24.5507
rhand -42.6295 -1.9087
rfingers 7.12502
rthumb -15.5016 -31.3073
lclavicle 3.90985e-014 -4.29375e-014
lhumerus -86.1539 -43.7511 123.185
lradius 74.2957
lwrist -32.4061
lhand -47.7849 -0.213624
lfingers 7.12502
lthumb -20.4617 28.7282
rfemur 348.733 -248.054 39.7147
rtibia 40.8311
rfoot -85.0616 -47.9684
rtoes 1.89243e-013
lfemur -35.979 2.94927 -5.71067
ltibia 74.8816
lfoot -6.74284 -6.41303
ltoes -3.08514e-013
393
root 12.1614 17.7201 -21.1773 -179.089 -9.08227 -169.538
lowerback 0.94866 -1.17734 2.18298
upperback -0.208403 -1.63254 3.05599
thorax -0.715563 -0.866299 1.93547
lowerneck -14.8892 4.61196 -0.0615879
upperneck 27.2825 1.97233 10.3187
head 11.1985 1.55567 3.95648
rclavicle -1.66979e-014 3.77691e-014
rhumerus -89.3904 34.5475 -119.11
rradius 89.8167
rwrist 23.7678
rhand -42.6187 -1.80141
rfingers 7.12502
rthumb -15.4912 -31.2008
lclavicle -1.66979e-014 3.77691e-014
lhumerus -86.1837 -43.8967 123.164
lradius 74.7446
lwrist -32.2561
lhand -47.6769 -0.323885
lfingers 7.12502
lthumb -20.3579 28.6291
rfemur 347.607 -250.042 39.4412
rtibia 41.1526
rfoot -87.0015 -47.5374
rtoes -4.92986e-014
lfemur -37.7273 2.57902 -5.42534
ltibia 73.7229
lfoot -7.50938 -6.52556
ltoes -1.145e-013
